<?xml version="1.0" encoding="UTF-8"?>
<svg version="1.1" xmlns="http://www.w3.org/2000/svg" width="211" height="239">
<path d="M0 0 C69.63 0 139.26 0 211 0 C211 78.87 211 157.74 211 239 C141.37 239 71.74 239 0 239 C0 160.13 0 81.26 0 0 Z " fill="#FEFEFE" transform="translate(0,0)"/>
<path d="M0 0 C8.88394137 4.73810206 17.66018196 9.44959377 26.3125 14.5625 C28.36158786 15.76629133 30.4110831 16.96938943 32.4609375 18.171875 C33.51635742 18.79126953 34.57177734 19.41066406 35.65917969 20.04882812 C39.19481566 22.11378009 42.73973065 24.16184239 46.2890625 26.203125 C46.88879379 26.5481456 47.48852509 26.8931662 48.10643005 27.24864197 C51.03177841 28.93091644 53.95832531 30.61105735 56.88598633 32.28930664 C57.93294678 32.89121826 58.97990723 33.49312988 60.05859375 34.11328125 C61.45549438 34.91439331 61.45549438 34.91439331 62.88061523 35.73168945 C65 37 65 37 66 38 C66.09492722 40.34253782 66.12559791 42.65546104 66.11352539 44.99829102 C66.11367142 45.72995483 66.11381744 46.46161865 66.1139679 47.2154541 C66.11326867 49.64496784 66.10547585 52.07440583 66.09765625 54.50390625 C66.0957921 56.18399514 66.09436819 57.86408457 66.09336853 59.54417419 C66.08954307 63.97473643 66.07971256 68.4052661 66.06866455 72.83581543 C66.05845103 77.35342976 66.05387104 81.87104934 66.04882812 86.38867188 C66.03809031 95.25912893 66.02101356 104.12956176 66 113 C62.4078232 111.59629093 59.14262786 110.03056306 55.80859375 108.0859375 C54.79450439 107.49723877 53.78041504 106.90854004 52.7355957 106.30200195 C51.64722412 105.66609131 50.55885254 105.03018066 49.4375 104.375 C47.10710188 103.02156052 44.77636773 101.66871238 42.4453125 100.31640625 C41.54112328 99.79118629 41.54112328 99.79118629 40.6186676 99.25535583 C33.70270253 95.24043005 26.758254 91.27559141 19.8125 87.3125 C18.62620656 86.63527867 17.43992693 85.95803317 16.25366211 85.28076172 C14.15338007 84.08186535 12.05297688 82.88318115 9.95239258 81.68481445 C6.63415684 79.79122768 3.31713872 77.89550784 0 76 C0 50.92 0 25.84 0 0 Z " fill="#633DE4" transform="translate(0,0)"/>
<path d="M0 0 C20.18794606 11.01160694 40.20437994 22.2964809 60 34 C60.86225693 34.37492584 61.72451385 34.74985168 62.61289978 35.13613892 C65 37 65 37 65.60127258 40.20805359 C65.61576256 41.54711823 65.60247722 42.88665232 65.56762695 44.2253418 C65.56835709 44.95729767 65.56908722 45.68925354 65.56983948 46.44338989 C65.56635594 48.86275352 65.52746291 51.28019158 65.48828125 53.69921875 C65.47895574 55.37643888 65.47183839 57.05367264 65.46684265 58.73091125 C65.44775191 63.14537156 65.39863399 67.55900925 65.34332275 71.97314453 C65.29217457 76.47742585 65.26933813 80.98184011 65.24414062 85.48632812 C65.19051665 94.32458018 65.10517928 103.16222169 65 112 C61.0940648 110.73617103 57.67793544 109.40780806 54.1484375 107.3046875 C53.22796631 106.76118652 52.30749512 106.21768555 51.35913086 105.65771484 C50.37436768 105.06941895 49.38960449 104.48112305 48.375 103.875 C46.23900434 102.61335833 44.10225255 101.35299613 41.96484375 100.09375 C40.27657471 99.09794922 40.27657471 99.09794922 38.55419922 98.08203125 C32.3817185 94.45572833 26.15715378 90.91953388 19.9375 87.375 C18.74331051 86.69387626 17.54913696 86.01272457 16.35498047 85.33154297 C14.23163527 84.12078053 12.10805596 82.91042847 9.98413086 81.70068359 C6.65456106 79.80313117 3.32739277 77.9013673 0 76 C0 50.92 0 25.84 0 0 Z " fill="#613BE3" transform="translate(73,126)"/>
<path d="M0 0 C3.68272291 1.44194606 7.09084429 3.06280581 10.55078125 4.984375 C11.63053223 5.58330566 12.7102832 6.18223633 13.82275391 6.79931641 C14.97437012 7.44304199 16.12598633 8.08676758 17.3125 8.75 C17.90359558 9.07925476 18.49469116 9.40850952 19.10369873 9.7477417 C30.56487263 16.13269699 41.90920059 22.70949472 53.20361328 29.38525391 C57.10762149 31.63958517 61.05918018 33.81065566 65 36 C65 61.08 65 86.16 65 112 C44.81205394 100.98839306 24.79562006 89.7035191 5 78 C4.13774307 77.62507416 3.27548615 77.25014832 2.38710022 76.86386108 C0 75 0 75 -0.60127258 71.79194641 C-0.61576256 70.45288177 -0.60247722 69.11334768 -0.56762695 67.7746582 C-0.56835709 67.04270233 -0.56908722 66.31074646 -0.56983948 65.55661011 C-0.56635594 63.13724648 -0.52746291 60.71980842 -0.48828125 58.30078125 C-0.47895574 56.62356112 -0.47183839 54.94632736 -0.46684265 53.26908875 C-0.44775191 48.85462844 -0.39863399 44.44099075 -0.34332275 40.02685547 C-0.29217457 35.52257415 -0.26933813 31.01815989 -0.24414062 26.51367188 C-0.19051665 17.67541982 -0.10517928 8.83777831 0 0 Z " fill="#613BE3" transform="translate(73,43)"/>
<path d="M0 0 C0 25.08 0 50.16 0 76 C-9.24 81.28 -18.48 86.56 -28 92 C-32.73171336 94.72501082 -37.46249669 97.45097504 -42.1875 100.1875 C-46.12091828 102.46551319 -50.05723571 104.73819892 -54 107 C-54.87865723 107.50611816 -55.75731445 108.01223633 -56.66259766 108.53369141 C-57.47132324 108.99308105 -58.28004883 109.4524707 -59.11328125 109.92578125 C-60.17156128 110.52966675 -60.17156128 110.52966675 -61.2512207 111.14575195 C-63 112 -63 112 -65 112 C-65 87.25 -65 62.5 -65 37 C-52.625 30.07 -52.625 30.07 -40 23 C-34.31856021 19.68923293 -28.64937822 16.36423647 -23 13 C-20.01423034 11.22435821 -17.02772302 9.4499862 -14.03979492 7.67797852 C-12.03997189 6.49183338 -10.04139942 5.30357682 -8.04418945 4.11303711 C-7.14273193 3.57815674 -6.24127441 3.04327637 -5.3125 2.4921875 C-4.50425781 2.01120605 -3.69601563 1.53022461 -2.86328125 1.03466797 C-1 0 -1 0 0 0 Z " fill="#3C29A8" transform="translate(211,42)"/>
</svg>
